<svg width="20" height="21" viewBox="0 0 20 21" fill="none" xmlns="http://www.w3.org/2000/svg">
<path d="M6.66757 10.5882C6.66757 8.67968 8.15949 7.1321 10.0004 7.1321C11.8412 7.1321 13.334 8.67968 13.334 10.5882C13.334 12.4967 11.8412 14.0443 10.0004 14.0443C8.15949 14.0443 6.66757 12.4967 6.66757 10.5882ZM4.86549 10.5882C4.86549 13.5284 7.16437 15.9118 10.0004 15.9118C12.8364 15.9118 15.1352 13.5284 15.1352 10.5882C15.1352 7.64799 12.8364 5.26462 10.0004 5.26462C7.16437 5.26462 4.86549 7.64799 4.86549 10.5882ZM14.1385 5.05354C14.1384 5.2996 14.2087 5.54016 14.3405 5.74481C14.4723 5.94945 14.6596 6.10899 14.8789 6.20324C15.0981 6.2975 15.3394 6.32224 15.5722 6.27433C15.805 6.22642 16.0188 6.10802 16.1867 5.9341C16.3546 5.76018 16.469 5.53855 16.5154 5.29724C16.5618 5.05592 16.5381 4.80577 16.4474 4.5784C16.3566 4.35103 16.2029 4.15667 16.0056 4.01988C15.8083 3.88309 15.5763 3.81003 15.339 3.80993C15.0209 3.81009 14.7153 3.94114 14.4903 4.17432C14.2653 4.40749 14.1388 4.72372 14.1385 5.05354ZM5.96037 19.0271C4.98541 18.9811 4.45549 18.8127 4.10333 18.6705C3.63645 18.482 3.30333 18.2576 2.95309 17.895C2.60285 17.5324 2.38605 17.1873 2.20509 16.7033C2.06781 16.3384 1.90541 15.7888 1.86109 14.778C1.81261 13.6852 1.80293 13.3569 1.80293 10.5883C1.80293 7.81967 1.81341 7.49231 1.86109 6.39858C1.90549 5.38779 2.06909 4.8393 2.20509 4.47329C2.38685 3.98925 2.60333 3.64389 2.95309 3.28078C3.30285 2.91767 3.63565 2.6929 4.10333 2.50529C4.45533 2.36296 4.98541 2.19459 5.96037 2.14865C7.01445 2.09838 7.33109 2.08835 10.0004 2.08835C12.6696 2.08835 12.9866 2.09921 14.0416 2.14865C15.0165 2.19468 15.5456 2.36429 15.8986 2.50529C16.3655 2.6929 16.6986 2.91816 17.0488 3.28078C17.3991 3.64339 17.6151 3.98925 17.7968 4.47329C17.9341 4.83823 18.0965 5.38779 18.1408 6.39858C18.1893 7.49231 18.199 7.81967 18.199 10.5883C18.199 13.3569 18.1893 13.6843 18.1408 14.778C18.0964 15.7888 17.9332 16.3382 17.7968 16.7033C17.6151 17.1873 17.3986 17.5327 17.0488 17.895C16.6991 18.2573 16.3655 18.482 15.8986 18.6705C15.5466 18.8128 15.0165 18.9812 14.0416 19.0271C12.9875 19.0774 12.6708 19.0874 10.0004 19.0874C7.32989 19.0874 7.01413 19.0774 5.96037 19.0271ZM5.87757 0.283489C4.81301 0.33375 4.08557 0.508754 3.45029 0.765039C2.79237 1.0297 2.23541 1.38477 1.67885 1.96087C1.12229 2.53697 0.780686 3.11531 0.525406 3.79741C0.278206 4.45645 0.109406 5.21021 0.0609264 6.3139C0.0116464 7.41932 0.000366211 7.77273 0.000366211 10.5882C0.000366211 13.4037 0.0116464 13.7571 0.0609264 14.8625C0.109406 15.9663 0.278206 16.72 0.525406 17.379C0.780686 18.0607 1.12237 18.6397 1.67885 19.2156C2.23533 19.7914 2.79237 20.146 3.45029 20.4114C4.08677 20.6677 4.81301 20.8427 5.87757 20.8929C6.94437 20.9432 7.28469 20.9557 10.0004 20.9557C12.716 20.9557 13.0569 20.944 14.1232 20.8929C15.1878 20.8427 15.9148 20.6677 16.5504 20.4114C17.208 20.146 17.7653 19.7917 18.3219 19.2156C18.8784 18.6395 19.2193 18.0607 19.4753 17.379C19.7225 16.72 19.8921 15.9662 19.9398 14.8625C19.9883 13.7563 19.9996 13.4037 19.9996 10.5882C19.9996 7.77273 19.9883 7.41932 19.9398 6.3139C19.8913 5.21013 19.7225 4.45604 19.4753 3.79741C19.2193 3.11573 18.8776 2.53788 18.3219 1.96087C17.7662 1.38385 17.208 1.0297 16.5512 0.765039C15.9148 0.508754 15.1877 0.332921 14.124 0.283489C13.0577 0.233227 12.7168 0.220703 10.0012 0.220703C7.28549 0.220703 6.94437 0.232398 5.87757 0.283489Z" fill="#121212" fill-opacity="0.6"/>
</svg>
