<svg width="20" height="22" viewBox="0 0 20 22" fill="none" xmlns="http://www.w3.org/2000/svg">
<path fill-rule="evenodd" clip-rule="evenodd" d="M9.99991 6.93994C8.69099 6.93994 7.62991 8.00103 7.62991 9.30994C7.62991 10.6189 8.69099 11.6799 9.99991 11.6799C11.3088 11.6799 12.3699 10.6189 12.3699 9.30994C12.3699 8.00103 11.3088 6.93994 9.99991 6.93994ZM6.12991 9.30994C6.12991 7.1726 7.86256 5.43994 9.99991 5.43994C12.1372 5.43994 13.8699 7.1726 13.8699 9.30994C13.8699 11.4473 12.1372 13.1799 9.99991 13.1799C7.86256 13.1799 6.12991 11.4473 6.12991 9.30994Z" fill="#666666"/>
<path fill-rule="evenodd" clip-rule="evenodd" d="M10.0035 1.75C6.58673 1.74769 3.24487 3.73032 2.35164 7.65591C1.29458 12.3261 4.1883 16.3762 6.91041 18.9997C8.64092 20.661 11.3609 20.659 13.0794 19.0004L13.0807 18.999C15.8127 16.3756 18.7059 12.3354 17.6487 7.6656C16.7602 3.73974 13.4204 1.75231 10.0035 1.75ZM19.1117 7.33441C18.0402 2.60029 13.985 0.252693 10.0045 0.250002C6.02384 0.247312 1.96583 2.58953 0.888905 7.32364C-0.353798 12.8131 3.07201 17.3836 5.86976 20.08L5.87071 20.0809C8.1801 22.2989 11.8193 22.3008 14.1207 20.08C16.9286 17.3834 20.3544 12.8239 19.1117 7.33441Z" fill="#666666"/>
</svg>
