<svg width="27" height="30" viewBox="0 0 27 30" fill="none" xmlns="http://www.w3.org/2000/svg">
<path d="M0.588846 29.4057L14.4883 14.9892L0.600491 0.598593C0.22955 0.822639 0 1.34139 0 2.02043V27.9976C0.0049749 28.6767 0.226223 29.1575 0.588846 29.4057Z" fill="#B2B2B2"/>
<path d="M14.986 14.5914L19.1262 10.2967L2.26593 0.707523C1.98202 0.536426 1.65953 0.446052 1.33109 0.445557L14.9844 14.5897L14.986 14.5914Z" fill="#B2B2B2"/>
<path d="M14.9866 15.3898L1.29005 29.596C1.63382 29.602 1.97243 29.5089 2.26814 29.3272L19.1617 19.7122L14.9866 15.3898Z" fill="#B2B2B2"/>
<path d="M25.2344 13.7764L19.6237 10.5794L15.3704 14.9914L19.6553 19.431L25.2327 16.2426C26.4187 15.5653 26.4187 14.4503 25.2344 13.7764Z" fill="#B2B2B2"/>
</svg>
