<svg style="display: none;" aria-hidden="true" xmlns="http://www.w3.org/2000/svg" xmlns:xlink="http://www.w3.org/1999/xlink"><symbol viewBox="0 0 27 33" id="apple_store"><path d="M22.696 17.888a7.356 7.356 0 0 1 3.474-6.123 7.562 7.562 0 0 0-5.885-3.18c-2.476-.26-4.876 1.48-6.137 1.48-1.287 0-3.23-1.455-5.321-1.412a7.902 7.902 0 0 0-6.595 4.022C-.62 17.612 1.507 24.868 4.239 28.86c1.366 1.954 2.964 4.137 5.054 4.06 2.045-.085 2.809-1.304 5.277-1.304 2.446 0 3.163 1.304 5.295 1.254 2.195-.035 3.577-1.962 4.896-3.935A16.164 16.164 0 0 0 27 24.374c-2.579-1.09-4.301-3.686-4.304-6.486ZM18.668 5.96A7.184 7.184 0 0 0 20.31.813a7.31 7.31 0 0 0-4.73 2.447 6.898 6.898 0 0 0-1.686 4.956 6.115 6.115 0 0 0 4.773-2.256Z"/></symbol><symbol viewBox="0 0 12 23" id="fb"><path d="M8.068 22.647V12.558h3.267l.488-3.932H8.069v-2.51c0-1.138.305-1.914 1.88-1.914l2.008-.001V.684C11.608.637 10.416.53 9.03.53c-2.896 0-4.878 1.832-4.878 5.197v2.9H.877v3.931h3.275v10.089h3.916Z"/></symbol><symbol viewBox="0 0 20 21" id="inst"><path d="M6.668 10.588c0-1.908 1.491-3.456 3.332-3.456 1.841 0 3.334 1.548 3.334 3.456 0 1.909-1.493 3.456-3.334 3.456-1.84 0-3.332-1.547-3.332-3.456Zm-1.803 0c0 2.94 2.3 5.324 5.135 5.324 2.836 0 5.135-2.384 5.135-5.324S12.836 5.265 10 5.265s-5.135 2.383-5.135 5.323Zm9.273-5.534c0 .246.07.486.203.69.131.205.319.365.538.46.22.094.46.118.693.07.233-.048.447-.166.615-.34a1.287 1.287 0 0 0 .26-1.356 1.236 1.236 0 0 0-.441-.558 1.17 1.17 0 0 0-1.516.154c-.225.233-.351.55-.351.88ZM5.96 19.027c-.975-.046-1.505-.214-1.857-.357a3.1 3.1 0 0 1-1.15-.775 3.213 3.213 0 0 1-.748-1.192c-.137-.365-.3-.914-.344-1.925-.048-1.093-.058-1.421-.058-4.19 0-2.768.01-3.096.058-4.19.044-1.01.208-1.559.344-1.925.182-.484.398-.83.748-1.192.35-.363.683-.588 1.15-.776.352-.142.882-.31 1.857-.356 1.054-.05 1.371-.06 4.04-.06 2.67 0 2.987.01 4.042.06.975.046 1.504.215 1.857.356.467.188.8.413 1.15.776.35.362.566.708.748 1.192.137.365.3.915.344 1.926.048 1.093.058 1.42.058 4.19 0 2.768-.01 3.095-.058 4.189-.045 1.01-.208 1.56-.344 1.925-.182.484-.398.83-.748 1.192a3.1 3.1 0 0 1-1.15.776c-.352.142-.882.31-1.857.356-1.054.05-1.371.06-4.042.06-2.67 0-2.986-.01-4.04-.06ZM5.878.283C4.813.333 4.086.51 3.45.765A4.89 4.89 0 0 0 1.68 1.961 5.088 5.088 0 0 0 .525 3.797C.278 4.457.11 5.21.061 6.314.01 7.419 0 7.773 0 10.588c0 2.816.01 3.17.06 4.275.048 1.103.217 1.857.464 2.516.256.682.597 1.26 1.154 1.837.556.575 1.113.93 1.771 1.195.637.257 1.363.432 2.428.482 1.066.05 1.407.063 4.122.063 2.716 0 3.057-.012 4.123-.063 1.065-.05 1.792-.225 2.427-.482a4.903 4.903 0 0 0 1.772-1.195 5.102 5.102 0 0 0 1.153-1.837c.247-.659.417-1.413.465-2.517.048-1.106.06-1.458.06-4.274 0-2.815-.012-3.169-.06-4.274-.049-1.104-.218-1.858-.465-2.517a5.121 5.121 0 0 0-1.153-1.836 4.879 4.879 0 0 0-1.77-1.196c-.637-.256-1.364-.432-2.428-.482-1.066-.05-1.407-.062-4.123-.062S6.944.232 5.878.283Z"/></symbol><symbol viewBox="0 0 20 22" id="locator"><path d="M10 6.94a2.37 2.37 0 1 0 0 4.74 2.37 2.37 0 0 0 0-4.74ZM6.13 9.31a3.87 3.87 0 1 1 7.74 0 3.87 3.87 0 0 1-7.74 0Z"/><path d="M10.004 1.75c-3.417-.002-6.76 1.98-7.652 5.906C1.295 12.326 4.188 16.376 6.91 19a4.444 4.444 0 0 0 6.17 0V19c2.733-2.623 5.626-6.664 4.569-11.333-.889-3.926-4.229-5.914-7.646-5.916Zm9.108 5.584C18.04 2.6 13.985.253 10.005.25 6.024.247 1.965 2.59.889 7.324c-1.243 5.49 2.183 10.06 4.98 12.756h.002a5.943 5.943 0 0 0 8.25 0c2.808-2.697 6.233-7.256 4.99-12.746Z"/></symbol><symbol viewBox="0 0 28 28" id="logo"><path d="M14.15 14.726C13.766 22.066 7.592 27.915 0 28V0c7.592.085 13.766 5.933 14.15 13.274C14.529 6.03 20.546.24 28 .006v27.988c-7.454-.234-13.471-6.024-13.85-13.268Z"/></symbol><symbol viewBox="0 0 22 20" id="mail"><path d="M2.885 3.237C2.205 3.868 1.75 4.893 1.75 6.5v7c0 1.607.455 2.631 1.135 3.263.69.64 1.73.987 3.115.987h10c1.385 0 2.425-.346 3.115-.987.68-.632 1.135-1.656 1.135-3.263v-7c0-1.607-.455-2.632-1.135-3.263-.69-.64-1.73-.987-3.115-.987H6c-1.385 0-2.425.346-3.115.987Zm-1.02-1.1C2.925 1.155 4.385.75 6 .75h10c1.615 0 3.075.404 4.135 1.388 1.07.994 1.615 2.469 1.615 4.362v7c0 1.893-.545 3.369-1.615 4.362-1.06.984-2.52 1.388-4.135 1.388H6c-1.615 0-3.075-.404-4.135-1.388C.795 16.87.25 15.393.25 13.5v-7c0-1.893.545-3.368 1.615-4.362Z"/><path d="M16.586 6.532a.75.75 0 0 1-.118 1.054l-3.13 2.5c-1.304 1.038-3.382 1.038-4.685 0H8.65l-3.12-2.5a.75.75 0 0 1 .938-1.171l3.119 2.499c.757.601 2.058.601 2.815 0l3.129-2.5a.75.75 0 0 1 1.054.118Z"/></symbol><symbol viewBox="0 0 27 30" id="play_market"><path d="m.589 29.406 13.9-14.417L.6.6C.23.823 0 1.34 0 2.02v25.978c.005.679.226 1.16.589 1.408ZM14.986 14.591l4.14-4.294L2.266.707A1.815 1.815 0 0 0 1.33.447L14.984 14.59l.002.001ZM14.987 15.39 1.29 29.596c.344.006.682-.087.978-.269l16.894-9.615-4.175-4.322ZM25.234 13.776l-5.61-3.197-4.254 4.412 4.285 4.44 5.578-3.188c1.186-.678 1.186-1.793.001-2.467Z"/></symbol><symbol viewBox="0 0 20 18" id="tw"><path d="M17.841 5.003v.518c0 5.365-3.95 11.56-11.15 11.56-2.224 0-4.274-.674-6.024-1.815.3.026.625.052.924.052a7.755 7.755 0 0 0 4.875-1.736c-1.724-.026-3.175-1.219-3.65-2.825.25.051.476.077.75.077.35 0 .7-.052 1.026-.155-1.8-.363-3.15-1.996-3.15-3.966v-.052a3.749 3.749 0 0 0 1.774.519 4.111 4.111 0 0 1-1.75-3.396c0-.751.2-1.451.526-2.047 1.925 2.462 4.824 4.069 8.074 4.25a3.81 3.81 0 0 1-.1-.933c0-2.255 1.75-4.069 3.926-4.069 1.125 0 2.15.493 2.85 1.27a7.795 7.795 0 0 0 2.5-.985 4.165 4.165 0 0 1-1.726 2.255c.8-.104 1.55-.31 2.25-.648-.5.83-1.15 1.555-1.924 2.126Z"/></symbol><symbol viewBox="0 0 30 30" id="why_ico_1"><path d="M17.96 1.96c.92-.92 2.22-1.293 3.707-1.293h2.667c1.487 0 2.786.372 3.707 1.293.92.92 1.293 2.22 1.293 3.707v2.666c0 1.488-.373 2.787-1.293 3.707-.92.92-2.22 1.293-3.707 1.293h-2.667c-1.488 0-2.787-.372-3.707-1.293-.92-.92-1.293-2.22-1.293-3.707V5.667c0-1.488.372-2.787 1.293-3.707Zm1.414 1.414c-.413.413-.707 1.113-.707 2.293v2.666c0 1.18.294 1.88.707 2.293.413.413 1.114.707 2.293.707h2.667c1.179 0 1.88-.294 2.293-.707.413-.413.707-1.114.707-2.293V5.667c0-1.18-.294-1.88-.707-2.293-.413-.413-1.114-.707-2.293-.707h-2.667c-1.18 0-1.88.294-2.293.707ZM1.96 17.96c.92-.92 2.22-1.293 3.707-1.293h2.667c1.487 0 2.786.372 3.707 1.292.92.92 1.293 2.22 1.293 3.708v2.666c0 1.488-.373 2.787-1.293 3.707-.92.92-2.22 1.293-3.707 1.293H5.667c-1.487 0-2.787-.372-3.707-1.293-.92-.92-1.293-2.22-1.293-3.707v-2.666c0-1.488.373-2.787 1.293-3.708Zm1.414 1.414c-.413.413-.707 1.113-.707 2.293v2.666c0 1.18.294 1.88.707 2.293.413.413 1.114.707 2.293.707h2.667c1.179 0 1.88-.294 2.293-.707.412-.413.707-1.114.707-2.293v-2.666c0-1.18-.294-1.88-.707-2.293-.413-.413-1.114-.707-2.293-.707H5.667c-1.18 0-1.88.294-2.293.707ZM7 2.667a4.333 4.333 0 1 0 0 8.666 4.333 4.333 0 0 0 0-8.666ZM.667 7a6.333 6.333 0 1 1 12.667 0A6.333 6.333 0 0 1 .667 7ZM23 18.667a4.333 4.333 0 1 0 0 8.666 4.333 4.333 0 0 0 0-8.666ZM16.667 23a6.333 6.333 0 1 1 12.667 0 6.333 6.333 0 0 1-12.667 0Z"/></symbol><symbol viewBox="0 0 30 30" id="why_ico_2"><path d="M1.473 3.913A6.328 6.328 0 0 1 7 .667h12a1 1 0 0 1 1 1V15a3.674 3.674 0 0 1-3.666 3.667H15a1 1 0 1 1 0-2h1.334c.914 0 1.666-.753 1.666-1.667V2.667H7a4.328 4.328 0 0 0-3.78 2.22 1 1 0 1 1-1.747-.974Z"/><path d="M18 5.667a1 1 0 0 1 1-1h2.454c1.325 0 2.53.717 3.184 1.844l.004.006 2.28 3.987A1 1 0 0 1 26.054 12h-1.72a.337.337 0 0 0-.334.333v4c0 .181.153.334.334.334h4a1 1 0 0 1 1 1v4c0 2.765-2.235 5-5 5H23a1 1 0 0 1-1-1c0-.915-.752-1.667-1.666-1.667-.915 0-1.667.752-1.667 1.667a1 1 0 0 1-1 1h-5.333a1 1 0 0 1-1-1c0-.915-.753-1.667-1.667-1.667S8 24.752 8 25.667a1 1 0 0 1-1 1H5.667c-2.766 0-5-2.235-5-5a1 1 0 1 1 2 0c0 1.66 1.339 3 3 3h.472A3.678 3.678 0 0 1 9.667 22c1.672 0 3.09 1.13 3.528 2.667h3.611A3.678 3.678 0 0 1 20.334 22c1.672 0 3.09 1.13 3.527 2.667h.473c1.66 0 3-1.34 3-3v-3h-3A2.337 2.337 0 0 1 22 16.333v-4A2.337 2.337 0 0 1 24.33 10l-1.421-2.485-.002-.002a1.688 1.688 0 0 0-1.453-.846H20V15a3.674 3.674 0 0 1-3.666 3.667H15a1 1 0 1 1 0-2h1.334c.914 0 1.666-.753 1.666-1.667V5.667Z"/><path d="M9.667 24a1.667 1.667 0 1 0 0 3.333 1.667 1.667 0 0 0 0-3.333ZM6 25.667a3.667 3.667 0 1 1 7.334 0 3.667 3.667 0 0 1-7.334 0ZM20.334 24a1.667 1.667 0 1 0 0 3.333 1.667 1.667 0 0 0 0-3.333Zm-3.667 1.667a3.667 3.667 0 1 1 7.333 0 3.667 3.667 0 0 1-7.333 0ZM24.334 12a.337.337 0 0 0-.334.333v4c0 .181.153.334.334.334h3v-1.402L25.471 12h-1.138ZM22 12.333A2.337 2.337 0 0 1 24.333 10h1.72a1 1 0 0 1 .87.505l2.28 4a1 1 0 0 1 .13.495v2.667a1 1 0 0 1-1 1h-4A2.337 2.337 0 0 1 22 16.333v-4ZM.667 9.667a1 1 0 0 1 1-1h8a1 1 0 1 1 0 2h-8a1 1 0 0 1-1-1ZM.667 13.667a1 1 0 0 1 1-1H7a1 1 0 1 1 0 2H1.667a1 1 0 0 1-1-1ZM.667 17.667a1 1 0 0 1 1-1h2.667a1 1 0 1 1 0 2H1.667a1 1 0 0 1-1-1Z"/></symbol><symbol viewBox="0 0 32 31" id="why_ico_3"><path d="M8.346 10.333a4.025 4.025 0 0 0-4.013 4.014v4.1A6.332 6.332 0 0 1 13 24.334a6.237 6.237 0 0 1-.764 3h11.417a4.025 4.025 0 0 0 4.013-4.013v-.587h-1.533c-1.88 0-3.704-1.374-3.876-3.404a3.678 3.678 0 0 1 1.088-2.969 3.657 3.657 0 0 1 2.628-1.093h1.693v-.92a4.025 4.025 0 0 0-4.013-4.014H8.346Zm-6.013 4.014a6.025 6.025 0 0 1 6.013-6.014h15.307a6.025 6.025 0 0 1 6.013 6.014v1.92a1 1 0 0 1-1 1h-2.693c-.479 0-.9.185-1.203.497l-.018.018c-.355.347-.553.84-.503 1.363v.012c.071.847.885 1.576 1.884 1.576h2.533a1 1 0 0 1 1 1v1.587a6.025 6.025 0 0 1-6.013 6.013h-13.48a1 1 0 0 1-.643-1.766c.324-.271.61-.61.833-.99l.012-.022c.397-.644.625-1.41.625-2.222a4.332 4.332 0 0 0-7.044-3.378 1 1 0 0 1-1.623-.782v-5.826Z"/><path d="M18.8 4.267a1.534 1.534 0 0 0-2.073-1.439l-10.587 4a2.798 2.798 0 0 0-1.807 2.625v6.094a1 1 0 1 1-2 0V9.453c0-2 1.229-3.787 3.1-4.495l10.586-4c2.31-.875 4.78.839 4.78 3.309v5.066a1 1 0 1 1-2 0V4.267ZM25.971 17.267c-.478 0-.9.186-1.203.498l-.018.017c-.355.347-.553.84-.503 1.363l.001.012c.07.847.885 1.577 1.883 1.577h2.59a.368.368 0 0 0 .357-.36v-2.747a.368.368 0 0 0-.356-.36h-2.75Zm-2.627-.907a3.658 3.658 0 0 1 2.627-1.093h2.809c1.271.046 2.298 1.074 2.298 2.36v2.747c0 1.285-1.027 2.314-2.298 2.359h-2.649c-1.879 0-3.703-1.374-3.876-3.404a3.678 3.678 0 0 1 1.089-2.969Z"/><path d="M8.333 15a1 1 0 0 1 1-1h9.333a1 1 0 0 1 0 2H9.333a1 1 0 0 1-1-1ZM6.666 20a4.337 4.337 0 0 0-2.71.955l-.001.002a4.294 4.294 0 0 0-1.622 3.376c0 .813.227 1.578.625 2.222l.008.014a4.293 4.293 0 0 0 3.7 2.098 4.207 4.207 0 0 0 2.864-1.1c.324-.271.61-.61.833-.99l.012-.022c.397-.644.625-1.41.625-2.222A4.332 4.332 0 0 0 6.666 20Zm-3.955-.61A6.332 6.332 0 0 1 13 24.334c-.001 1.184-.332 2.308-.917 3.262a5.794 5.794 0 0 1-1.255 1.493 6.207 6.207 0 0 1-4.163 1.579 6.293 6.293 0 0 1-5.415-3.069 6.228 6.228 0 0 1-.918-3.265c0-1.992.918-3.784 2.378-4.942Z"/><path d="M9.482 22.347a1 1 0 0 1-.055 1.413l-2.84 2.627A1 1 0 0 1 5.2 26.36l-1.32-1.32a1 1 0 1 1 1.414-1.414l.64.64 2.134-1.974a1 1 0 0 1 1.413.055Z"/></symbol></svg>