<?xml version="1.0" encoding="utf-8"?>
<!-- Generated by IcoMoon.io -->
<svg version="1.1" xmlns="http://www.w3.org/2000/svg" xmlns:xlink="http://www.w3.org/1999/xlink" width="410" height="74" viewBox="0 0 410 74">
<svg id="icon-apple_store" width="26" height="32" viewBox="0 0 26 32" x="0" y="0">
<path d="M22.008 17.346c0.031-2.404 1.322-4.678 3.369-5.937-1.292-1.845-3.456-3.015-5.707-3.085-2.401-0.252-4.729 1.437-5.952 1.437-1.247 0-3.131-1.412-5.159-1.37-2.644 0.085-5.109 1.589-6.395 3.9-2.765 4.787-0.703 11.823 1.946 15.693 1.325 1.895 2.874 4.012 4.901 3.937 1.983-0.082 2.724-1.265 5.118-1.265 2.372 0 3.067 1.265 5.134 1.217 2.128-0.035 3.469-1.903 4.748-3.816 0.952-1.35 1.685-2.842 2.171-4.422-2.501-1.058-4.171-3.575-4.174-6.29z"></path>
<path d="M18.102 5.779c1.16-1.393 1.732-3.183 1.594-4.991-1.773 0.186-3.41 1.033-4.586 2.373-1.15 1.309-1.748 3.068-1.635 4.806 1.773 0.018 3.517-0.806 4.628-2.188z"></path>
</svg>
<svg id="icon-fb" width="17" height="32" viewBox="0 0 17 32" x="42" y="0">
<path d="M11.225 31.509v-14.037h4.545l0.68-5.47h-5.225v-3.493c0-1.584 0.424-2.663 2.615-2.663l2.794-0.001v-4.893c-0.483-0.066-2.142-0.215-4.071-0.215-4.028 0-6.786 2.549-6.786 7.231v4.034h-4.556v5.47h4.556v14.037l5.449-0z"></path>
</svg>
<svg id="icon-inst" width="30" height="32" viewBox="0 0 30 32" x="84" y="0">
<path d="M10.16 16.134c0-2.908 2.273-5.266 5.079-5.266s5.080 2.358 5.080 5.266-2.275 5.266-5.080 5.266c-2.805 0-5.079-2.358-5.079-5.266zM7.414 16.134c0 4.48 3.503 8.112 7.825 8.112s7.824-3.632 7.824-8.112-3.503-8.112-7.824-8.112c-4.322 0-7.825 3.632-7.825 8.112zM21.544 7.701c-0 0.375 0.107 0.742 0.308 1.053s0.486 0.555 0.82 0.699c0.334 0.144 0.702 0.181 1.056 0.108s0.681-0.253 0.936-0.518c0.256-0.265 0.43-0.603 0.501-0.97s0.035-0.749-0.104-1.095c-0.138-0.346-0.373-0.643-0.673-0.851s-0.654-0.32-1.016-0.32c-0.485 0-0.95 0.2-1.293 0.555s-0.536 0.837-0.536 1.34zM9.082 28.994c-1.486-0.070-2.293-0.327-2.83-0.543-0.711-0.287-1.219-0.629-1.753-1.182s-0.864-1.078-1.14-1.816c-0.209-0.556-0.457-1.394-0.524-2.934-0.074-1.665-0.089-2.166-0.089-6.384s0.016-4.718 0.089-6.384c0.068-1.54 0.317-2.376 0.524-2.934 0.277-0.738 0.607-1.264 1.14-1.817s1.040-0.896 1.753-1.182c0.536-0.217 1.344-0.473 2.83-0.543 1.606-0.077 2.089-0.092 6.156-0.092s4.55 0.017 6.158 0.092c1.486 0.070 2.292 0.329 2.83 0.543 0.711 0.286 1.219 0.629 1.753 1.182s0.863 1.080 1.14 1.817c0.209 0.556 0.457 1.394 0.524 2.934 0.074 1.667 0.089 2.165 0.089 6.384s-0.015 4.718-0.089 6.384c-0.068 1.54-0.316 2.377-0.524 2.934-0.277 0.738-0.607 1.264-1.14 1.816s-1.041 0.894-1.753 1.182c-0.536 0.217-1.344 0.473-2.83 0.543-1.606 0.077-2.089 0.092-6.158 0.092s-4.55-0.015-6.156-0.092zM8.956 0.432c-1.622 0.077-2.731 0.343-3.699 0.734-1.003 0.403-1.851 0.944-2.699 1.822s-1.369 1.759-1.758 2.799c-0.377 1.004-0.634 2.153-0.708 3.835-0.075 1.684-0.092 2.223-0.092 6.513s0.017 4.829 0.092 6.513c0.074 1.682 0.331 2.83 0.708 3.835 0.389 1.039 0.91 1.921 1.758 2.799s1.697 1.418 2.699 1.822c0.97 0.391 2.077 0.657 3.699 0.734 1.626 0.077 2.144 0.096 6.282 0.096s4.658-0.018 6.282-0.096c1.622-0.076 2.73-0.343 3.699-0.734 1.002-0.404 1.851-0.944 2.699-1.822s1.367-1.76 1.758-2.799c0.377-1.004 0.635-2.153 0.708-3.835 0.074-1.686 0.091-2.223 0.091-6.513s-0.017-4.829-0.091-6.513c-0.074-1.682-0.331-2.831-0.708-3.835-0.39-1.039-0.911-1.919-1.758-2.799s-1.697-1.419-2.698-1.822c-0.97-0.391-2.078-0.658-3.699-0.734-1.625-0.077-2.144-0.096-6.282-0.096s-4.658 0.018-6.284 0.096z"></path>
</svg>
<svg id="icon-locator" width="29" height="32" viewBox="0 0 29 32" x="126" y="0">
<path d="M14.545 10.094c-1.904 0-3.447 1.543-3.447 3.447s1.543 3.447 3.447 3.447c1.904 0 3.447-1.543 3.447-3.447s-1.543-3.447-3.447-3.447zM8.916 13.542c0-3.109 2.52-5.629 5.629-5.629s5.629 2.52 5.629 5.629-2.52 5.629-5.629 5.629c-3.109 0-5.629-2.52-5.629-5.629z"></path>
<path d="M14.551 2.545c4.97 0.003 9.828 2.894 11.12 8.604 1.538 6.792-2.671 12.669-6.644 16.485l-0.002 0.002c-2.5 2.413-6.456 2.415-8.973-0.001-3.959-3.816-8.168-9.707-6.631-16.5 1.299-5.71 6.16-8.594 11.13-8.59zM27.799 10.668c-1.559-6.886-7.457-10.301-13.247-10.305s-11.693 3.403-13.259 10.289c-1.808 7.985 3.175 14.633 7.245 18.555l0.001 0.001c3.359 3.226 8.653 3.229 12-0.001 4.084-3.922 9.067-10.554 7.26-18.539z"></path>
</svg>
<svg id="icon-logo" width="32" height="32" viewBox="0 0 32 32" x="168" y="0">
<path d="M16.171 16.83c-0.439 8.389-7.495 15.072-16.171 15.17v-32c8.676 0.098 15.732 6.781 16.171 15.17 0.433-8.279 7.31-14.896 15.829-15.163v31.985c-8.519-0.267-15.396-6.884-15.829-15.163z"></path>
</svg>
<svg id="icon-mail" width="35" height="32" viewBox="0 0 35 32" x="210" y="0">
<path d="M4.617 5.179c-1.088 1.010-1.817 2.649-1.817 5.221v11.2c0 2.571 0.729 4.21 1.817 5.221 1.104 1.025 2.767 1.579 4.983 1.579h16c2.216 0 3.879-0.554 4.984-1.579 1.088-1.010 1.816-2.649 1.816-5.221v-11.2c0-2.571-0.729-4.21-1.816-5.221-1.104-1.025-2.768-1.579-4.984-1.579h-16c-2.216 0-3.879 0.554-4.983 1.579zM2.983 3.421c1.696-1.575 4.033-2.221 6.617-2.221h16c2.584 0 4.921 0.646 6.616 2.221 1.712 1.59 2.584 3.951 2.584 6.979v11.2c0 3.029-0.871 5.39-2.584 6.979-1.696 1.575-4.032 2.221-6.616 2.221h-16c-2.584 0-4.921-0.646-6.617-2.221-1.712-1.59-2.583-3.951-2.583-6.979v-11.2c0-3.029 0.871-5.39 2.583-6.979z"></path>
<path d="M26.538 10.451c0.414 0.518 0.329 1.273-0.189 1.687l-5.010 4.001c-2.085 1.66-5.409 1.66-7.495 0l-0.003-0.002-4.992-4c-0.517-0.414-0.601-1.17-0.186-1.687s1.17-0.601 1.687-0.186l4.99 3.999c1.211 0.963 3.293 0.962 4.503-0.001v0l5.007-3.999c0.518-0.414 1.273-0.329 1.687 0.189z"></path>
</svg>
<svg id="icon-play_market" width="29" height="32" viewBox="0 0 29 32" x="252" y="0">
<path d="M0.628 31.366l14.826-15.378-14.814-15.35c-0.396 0.239-0.641 0.792-0.641 1.517v27.709c0.005 0.724 0.241 1.237 0.628 1.502z"></path>
<path d="M15.985 15.564l4.416-4.581-17.984-10.228c-0.303-0.182-0.647-0.279-0.997-0.279l14.565 15.089z"></path>
<path d="M15.986 16.416l-14.61 15.153c0.367 0.006 0.728-0.093 1.043-0.287l18.020-10.256-4.453-4.611z"></path>
<path d="M26.917 14.695l-5.985-3.41-4.537 4.706 4.571 4.736 5.949-3.401c1.265-0.722 1.265-1.912 0.002-2.631z"></path>
</svg>
<svg id="icon-tw" width="36" height="32" viewBox="0 0 36 32" x="294" y="0">
<path d="M31.718 8.893c0 0.323 0 0.645 0 0.922 0 9.538-7.022 20.551-19.822 20.551-3.956 0-7.6-1.198-10.711-3.226 0.533 0.046 1.111 0.092 1.644 0.092 3.244 0 6.267-1.152 8.667-3.087-3.067-0.046-5.644-2.166-6.489-5.022 0.444 0.092 0.844 0.138 1.333 0.138 0.622 0 1.244-0.092 1.822-0.276-3.2-0.645-5.6-3.548-5.6-7.050 0-0.046 0-0.046 0-0.092 0.933 0.553 2 0.875 3.156 0.922-1.867-1.29-3.111-3.502-3.111-6.036 0-1.336 0.356-2.58 0.933-3.64 3.422 4.377 8.578 7.234 14.356 7.557-0.133-0.507-0.178-1.106-0.178-1.659 0-4.009 3.111-7.234 6.978-7.234 2 0 3.822 0.875 5.067 2.258 1.6-0.323 3.067-0.922 4.444-1.751-0.533 1.705-1.644 3.087-3.067 4.009 1.422-0.184 2.756-0.553 4-1.152-0.889 1.474-2.044 2.765-3.422 3.778z"></path>
</svg>
<svg id="icon-why_ico_1" width="32" height="32" viewBox="0 0 32 32" x="336" y="0">
<path d="M19.157 2.090c0.982-0.982 2.368-1.379 3.954-1.379h2.844c1.587 0 2.972 0.397 3.954 1.379s1.379 2.368 1.379 3.954v2.844c0 1.587-0.397 2.973-1.379 3.954s-2.368 1.379-3.954 1.379h-2.844c-1.587 0-2.973-0.397-3.954-1.379s-1.379-2.368-1.379-3.954v-2.844c0-1.587 0.397-2.973 1.379-3.954zM20.666 3.599c-0.441 0.441-0.754 1.188-0.754 2.446v2.844c0 1.258 0.314 2.005 0.754 2.446s1.188 0.754 2.446 0.754h2.844c1.258 0 2.005-0.314 2.446-0.754s0.754-1.188 0.754-2.446v-2.844c0-1.258-0.314-2.005-0.754-2.446s-1.188-0.754-2.446-0.754h-2.844c-1.258 0-2.005 0.314-2.446 0.754z"></path>
<path d="M2.091 19.157c0.982-0.982 2.368-1.379 3.954-1.379h2.844c1.587 0 2.973 0.397 3.954 1.379s1.379 2.368 1.379 3.954v2.844c0 1.587-0.397 2.973-1.379 3.954s-2.368 1.379-3.954 1.379h-2.844c-1.587 0-2.973-0.397-3.954-1.379s-1.379-2.368-1.379-3.954v-2.844c0-1.587 0.397-2.972 1.379-3.954zM3.599 20.665c-0.441 0.441-0.754 1.188-0.754 2.446v2.844c0 1.258 0.314 2.005 0.754 2.446s1.188 0.754 2.446 0.754h2.844c1.258 0 2.005-0.314 2.446-0.754s0.754-1.188 0.754-2.446v-2.844c0-1.258-0.314-2.005-0.754-2.446s-1.188-0.754-2.446-0.754h-2.844c-1.258 0-2.005 0.314-2.446 0.754z"></path>
<path d="M7.467 2.844c-2.553 0-4.622 2.069-4.622 4.622s2.069 4.622 4.622 4.622c2.553 0 4.622-2.069 4.622-4.622s-2.069-4.622-4.622-4.622zM0.711 7.467c0-3.731 3.025-6.756 6.756-6.756s6.756 3.025 6.756 6.756c0 3.731-3.025 6.756-6.756 6.756s-6.756-3.025-6.756-6.756z"></path>
<path d="M24.534 19.911c-2.553 0-4.622 2.069-4.622 4.622s2.069 4.622 4.622 4.622c2.553 0 4.622-2.069 4.622-4.622s-2.069-4.622-4.622-4.622zM17.778 24.533c0-3.731 3.025-6.756 6.756-6.756s6.756 3.025 6.756 6.756c0 3.731-3.025 6.756-6.756 6.756s-6.756-3.025-6.756-6.756z"></path>
</svg>
<svg id="icon-why_ico_2" width="32" height="32" viewBox="0 0 32 32" x="378" y="0">
<path d="M1.572 4.174c1.148-2.060 3.36-3.463 5.895-3.463h12.8c0.589 0 1.067 0.478 1.067 1.067v14.222c0 2.154-1.758 3.911-3.911 3.911h-1.422c-0.589 0-1.067-0.478-1.067-1.067s0.478-1.067 1.067-1.067h1.422c0.975 0 1.778-0.802 1.778-1.778v-13.156h-11.733c-1.731 0-3.246 0.958-4.032 2.368-0.287 0.515-0.936 0.699-1.451 0.412s-0.699-0.936-0.412-1.451z"></path>
<path d="M19.2 6.044c0-0.589 0.478-1.067 1.067-1.067h2.617c1.413 0 2.699 0.765 3.397 1.968l0.004 0.006 2.432 4.252c0.189 0.33 0.188 0.736-0.003 1.065s-0.542 0.532-0.923 0.532h-1.835c-0.193 0-0.356 0.162-0.356 0.356v4.267c0 0.193 0.162 0.356 0.356 0.356h4.267c0.589 0 1.067 0.478 1.067 1.067v4.267c0 2.95-2.383 5.333-5.333 5.333h-1.422c-0.589 0-1.067-0.478-1.067-1.067 0-0.975-0.802-1.778-1.778-1.778s-1.778 0.802-1.778 1.778c0 0.589-0.478 1.067-1.067 1.067h-5.689c-0.589 0-1.067-0.478-1.067-1.067 0-0.975-0.802-1.778-1.778-1.778s-1.778 0.802-1.778 1.778c0 0.589-0.478 1.067-1.067 1.067h-1.422c-2.95 0-5.333-2.383-5.333-5.333 0-0.589 0.478-1.067 1.067-1.067s1.067 0.478 1.067 1.067c0 1.772 1.428 3.2 3.2 3.2h0.504c0.466-1.638 1.979-2.844 3.763-2.844s3.296 1.206 3.763 2.844h3.852c0.466-1.638 1.979-2.844 3.763-2.844s3.296 1.206 3.763 2.844h0.504c1.772 0 3.2-1.428 3.2-3.2v-3.2h-3.2c-1.371 0-2.489-1.118-2.489-2.489v-4.267c0-1.37 1.115-2.487 2.485-2.489l-1.516-2.65c-0.001-0.001-0.001-0.002-0.002-0.003-0.326-0.56-0.917-0.903-1.551-0.903h-1.55l-0 8.889c0 2.154-1.758 3.911-3.911 3.911h-1.422c-0.589 0-1.067-0.478-1.067-1.067s0.478-1.067 1.067-1.067h1.422c0.975 0 1.778-0.802 1.778-1.778l0-9.956z"></path>
<path d="M10.311 25.6c-0.982 0-1.778 0.796-1.778 1.778s0.796 1.778 1.777 1.778c0.982 0 1.778-0.796 1.778-1.778s-0.796-1.778-1.778-1.778zM6.4 27.378c0-2.16 1.751-3.911 3.911-3.911s3.911 1.751 3.911 3.911c0 2.16-1.751 3.911-3.911 3.911s-3.911-1.751-3.911-3.911z"></path>
<path d="M21.689 25.6c-0.982 0-1.778 0.796-1.778 1.778s0.796 1.778 1.778 1.778c0.982 0 1.778-0.796 1.778-1.778s-0.796-1.778-1.778-1.778zM17.778 27.378c0-2.16 1.751-3.911 3.911-3.911s3.911 1.751 3.911 3.911c0 2.16-1.751 3.911-3.911 3.911s-3.911-1.751-3.911-3.911z"></path>
<path d="M25.956 12.8c-0.193 0-0.356 0.162-0.356 0.356v4.267c0 0.193 0.162 0.356 0.356 0.356l3.2 0v-1.495l-1.985-3.483h-1.215zM23.467 13.156c0-1.371 1.117-2.489 2.489-2.489h1.835c0.383 0 0.737 0.206 0.927 0.538l2.432 4.267c0.092 0.161 0.14 0.343 0.14 0.528l0 2.844c0 0.589-0.478 1.067-1.067 1.067l-4.266-0c-1.371 0-2.489-1.118-2.489-2.489v-4.267z"></path>
<path d="M0.711 10.311c0-0.589 0.478-1.067 1.067-1.067h8.533c0.589 0 1.067 0.478 1.067 1.067s-0.478 1.067-1.067 1.067h-8.533c-0.589 0-1.067-0.478-1.067-1.067z"></path>
<path d="M0.711 14.578c0-0.589 0.478-1.067 1.067-1.067h5.689c0.589 0 1.067 0.478 1.067 1.067s-0.478 1.067-1.067 1.067h-5.689c-0.589 0-1.067-0.478-1.067-1.067z"></path>
<path d="M0.711 18.844c0-0.589 0.478-1.067 1.067-1.067h2.844c0.589 0 1.067 0.478 1.067 1.067s-0.478 1.067-1.067 1.067h-2.844c-0.589 0-1.067-0.478-1.067-1.067z"></path>
</svg>
<svg id="icon-why_ico_3" width="33" height="32" viewBox="0 0 33 32" x="0" y="42">
<path d="M8.616 10.667c-2.279 0-4.143 1.864-4.143 4.143v4.233c0.747-0.298 1.56-0.462 2.409-0.462 3.612 0 6.538 2.926 6.538 6.538 0 1.112-0.282 2.173-0.789 3.097h11.786c2.279 0 4.143-1.864 4.143-4.143v-0.606h-1.583c-1.94 0-3.823-1.419-4.001-3.514-0.111-1.187 0.341-2.295 1.123-3.065 0.704-0.718 1.67-1.129 2.712-1.129h1.748v-0.95c0-2.279-1.864-4.143-4.143-4.143h-15.8zM2.408 14.809c0-3.419 2.788-6.207 6.207-6.207h15.8c3.419 0 6.207 2.788 6.207 6.207v1.982c0 0.57-0.462 1.032-1.032 1.032h-2.78c-0.494 0-0.929 0.192-1.242 0.514l-0.019 0.019c-0.366 0.357-0.571 0.866-0.519 1.407l0.001 0.012c0.073 0.874 0.913 1.627 1.944 1.627h2.615c0.57 0 1.032 0.462 1.032 1.032v1.638c0 3.419-2.788 6.207-6.207 6.207h-13.915c-0.434 0-0.822-0.271-0.97-0.679s-0.026-0.865 0.307-1.144c0.334-0.28 0.629-0.629 0.859-1.023l0.013-0.022c0.41-0.665 0.645-1.455 0.645-2.293 0-2.472-2.002-4.473-4.473-4.473-1.048 0-2.021 0.367-2.797 0.986-0.31 0.247-0.734 0.295-1.091 0.123s-0.584-0.533-0.584-0.93v-6.015z"></path>
<path d="M19.406 4.404c0-1.111-1.111-1.874-2.139-1.485l-10.929 4.129c-1.124 0.426-1.866 1.499-1.866 2.709v6.29c0 0.57-0.462 1.032-1.032 1.032s-1.032-0.462-1.032-1.032v-6.29c0-2.065 1.268-3.91 3.199-4.64l10.928-4.129c2.385-0.904 4.935 0.866 4.935 3.415v5.23c0 0.57-0.462 1.032-1.032 1.032s-1.032-0.462-1.032-1.032v-5.23z"></path>
<path d="M26.809 17.824c-0.494 0-0.929 0.192-1.242 0.514l-0.019 0.018c-0.366 0.357-0.571 0.866-0.519 1.407l0.001 0.012c0.073 0.874 0.913 1.627 1.944 1.627h2.674c0.222-0.014 0.368-0.188 0.368-0.372v-2.835c0-0.183-0.145-0.357-0.368-0.372h-2.839zM24.097 16.888c0.704-0.718 1.67-1.128 2.712-1.128h2.863c0.012 0 0.025 0 0.037 0.001 1.312 0.047 2.372 1.108 2.372 2.435v2.835c0 1.327-1.060 2.389-2.372 2.435-0.012 0-0.025 0.001-0.037 0.001h-2.698c-1.94 0-3.823-1.419-4.001-3.514-0.111-1.187 0.341-2.295 1.123-3.065z"></path>
<path d="M8.602 15.484c0-0.57 0.462-1.032 1.032-1.032h9.634c0.57 0 1.032 0.462 1.032 1.032s-0.462 1.032-1.032 1.032h-9.634c-0.57 0-1.032-0.462-1.032-1.032z"></path>
<path d="M6.881 20.645c-1.048 0-2.021 0.367-2.797 0.986l-0.002 0.001c-1.026 0.814-1.674 2.074-1.674 3.486 0 0.839 0.235 1.629 0.645 2.293l0.009 0.014c0.771 1.295 2.188 2.166 3.82 2.166 1.132 0 2.153-0.413 2.929-1.111 0.009-0.008 0.018-0.016 0.027-0.024 0.334-0.28 0.629-0.629 0.859-1.023l0.013-0.022c0.41-0.665 0.645-1.455 0.645-2.293 0-2.472-2.002-4.473-4.473-4.473zM2.798 20.016c1.123-0.895 2.544-1.436 4.083-1.436 3.612 0 6.538 2.926 6.538 6.538 0 1.221-0.341 2.382-0.945 3.366-0.344 0.587-0.785 1.112-1.295 1.542-1.149 1.028-2.655 1.629-4.297 1.629-2.384 0-4.46-1.274-5.59-3.168-0.606-0.985-0.948-2.147-0.948-3.37 0-2.057 0.948-3.906 2.454-5.102z"></path>
<path d="M9.788 23.068c0.387 0.418 0.362 1.072-0.057 1.459l-2.932 2.711c-0.407 0.376-1.039 0.364-1.431-0.028l-1.363-1.363c-0.403-0.403-0.403-1.057 0-1.46s1.057-0.403 1.46 0l0.661 0.661 2.203-2.037c0.419-0.387 1.072-0.362 1.459 0.057z"></path>
</svg>
</svg>
